inDegrees=yes
name=ik_S50_A03_T01
DataType=double
version=3
OpenSimVersion=4.3-2021-08-27-4bc7ad9
endheader
time	pelvis_tilt	pelvis_list	pelvis_rotation	pelvis_tx	pelvis_ty	pelvis_tz	hip_flexion_r	hip_adduction_r	hip_rotation_r	knee_angle_r	knee_angle_r_beta	ankle_angle_r	subtalar_angle_r	mtp_angle_r	hip_flexion_l	hip_adduction_l	hip_rotation_l	knee_angle_l	knee_angle_l_beta	ankle_angle_l	subtalar_angle_l	mtp_angle_l	lumbar_extension	lumbar_bending	lumbar_rotation	arm_flex_r	arm_add_r	arm_rot_r	elbow_flex_r	pro_sup_r	wrist_flex_r	wrist_dev_r	arm_flex_l	arm_add_l	arm_rot_l	elbow_flex_l	pro_sup_l	wrist_flex_l	wrist_dev_l
19.43999999999967	1.256027638162151	2.728450112666176	43.85907476840718	0	0.9399999999999999	0	2.04124194489391	-5.636732449615093	-19.10421500020132	7.394812974967371	0.1290638339823776	0	0	0	2.786798779506096	-2.132338646655486	-7.426299569567356	10.89836282003185	0.1902123142864901	0	0	0	0	0	0	40.42946428183749	-40.42946428183749	4.903367371746478	83.62659366745071	85.09663289863857	0	0	40.42946428183749	-40.42946428183749	4.903367371746478	83.62659366745071	85.09663289862043	0	0
19.45999999999967	0.9504591617310133	2.785954179077697	45.30993167273674	0	0.9399999999999999	0	3.292508899300334	-6.611600057397077	-16.05065864496247	11.20870584221705	0.1956288218342116	0	0	0	3.060950918819874	-1.909275164453879	-6.27329057133489	10.77327338522595	0.1880290917896683	0	0	0	0	0	0	40.44722165603236	-40.44722165603236	4.904020715033377	83.63588047866368	85.09597955538	0	0	40.44722165603236	-40.44722165603236	4.904020715033377	83.63588047866368	85.09597955536198	0	0
19.47999999999967	0.8335486998045609	2.8784899074589	46.82624183501535	0	0.9399999999999999	0	3.409069674457776	-6.996444907947029	-16.27766126192551	12.82815127639481	0.2238934767170025	0	0	0	3.139933569331474	-1.785422914615035	-5.519930784318984	10.70255664475694	0.1867948518322056	0	0	0	0	0	0	40.44823497855815	-40.44823497855815	4.90406371528332	83.63649175135794	85.09593655513197	0	0	40.44823497855815	-40.44823497855815	4.90406371528332	83.63649175135794	85.09593655511394	0	0
19.49999999999967	0.8284428060719173	2.906789270821946	47.61553622615255	0	0.9399999999999999	0	4.397238023458189	-6.955211491665598	-12.60211160689528	14.39058965649181	0.2511631708092219	0	0	0	3.130464685948628	-1.904473236393418	-5.922274845922584	10.7043256392202	0.1868257266100391	0	0	0	0	0	0	40.45916307932431	-40.45916307932431	4.904468732858085	83.64224881505544	85.09553153757481	0	0	40.45916307932431	-40.45916307932431	4.904468732858085	83.64224881505544	85.09553153755688	0	0
19.51999999999967	0.9372830614334412	2.87550720094043	50.11076176548482	0	0.9399999999999999	0	4.513120839879774	-6.910615385484103	-11.44570385565609	14.72243737192951	0.256955006058831	0	0	0	3.103252607561162	-2.176437173796698	-4.933815616727513	10.7970643565641	0.1884443225717666	0	0	0	0	0	0	40.47012154923845	-40.47012154923845	4.904866451776742	83.6479020531911	85.09513381867336	0	0	40.47012154923845	-40.47012154923845	4.904866451776742	83.6479020531911	85.0951338186555	0	0
19.53999999999967	0.9887154365346313	2.87383860459253	51.01291313601439	0	0.9399999999999999	0	4.928326172655161	-6.3281347862873	-6.957778292029985	15.03468379092869	0.2624047341479284	0	0	0	3.049056131253019	-2.497084872700329	-5.631931788303254	10.84826838179108	0.1893380014022516	0	0	0	0	0	0	40.47833910962073	-40.47833910962073	4.905168361429692	83.65219347727422	85.09483190903352	0	0	40.47833910962073	-40.47833910962073	4.905168361429692	83.65219347727422	85.09483190901571	0	0
19.55999999999967	1.088277764807606	2.822713633617849	52.9246081698434	0	0.9399999999999999	0	4.62518271431138	-5.943093922748945	-5.031675401805276	14.51364959863756	0.2533109719769789	0	0	0	3.079575622693759	-2.871916335280632	-5.345546909896105	10.91741902506359	0.190544907807229	0	0	0	0	0	0	40.48777768805488	-40.48777768805488	4.905514791493005	83.65711772244408	85.09448547898523	0	0	40.48777768805488	-40.48777768805488	4.905514791493005	83.65711772244408	85.09448547896753	0	0
19.57999999999967	1.121831693410526	2.610277784327812	57.21770164807087	0	0.9399999999999999	0	4.204284489173056	-5.774490091580935	-4.55169154170744	13.48697128365654	0.2353920550217327	0	0	0	3.536087102983558	-3.080617984992906	-2.437440196296964	11.13458537700638	0.1943351756731755	0	0	0	0	0	0	40.5016482887954	-40.5016482887954	4.906022091610034	83.66432859656774	85.09397817889015	0	0	40.5016482887954	-40.5016482887954	4.906022091610034	83.66432859656774	85.09397817887256	0	0
19.59999999999967	1.046109423556955	2.428871424582166	59.56007920282295	0	0.9399999999999999	0	3.828895681043473	-4.915820208066521	3.594977460570783	10.85520946506787	0.1894591461590868	0	0	0	3.958406992540233	-3.202714265711833	-1.321092636850237	11.32012805395812	0.1975735062889475	0	0	0	0	0	0	40.51845853998387	-40.51845853998387	4.906651477631565	83.67327495038488	85.09334879289594	0	0	40.51845853998387	-40.51845853998387	4.906651477631565	83.67327495038488	85.0933487928785	0	0
19.61999999999967	0.9963792197905188	2.346199865458241	60.74489304041547	0	0.9399999999999999	0	3.824520501637473	-5.004395922264893	2.407818178337401	10.85393487798178	0.189436900417831	0	0	0	4.123691407674821	-3.116096157828455	-0.1353365436769565	11.32563085958898	0.1976695483653033	0	0	0	0	0	0	40.51888741227963	-40.51888741227963	4.906669279515504	83.6735280091107	85.09333099101285	0	0	40.51888741227963	-40.51888741227963	4.906669279515504	83.6735280091107	85.09333099099541	0	0
19.63999999999967	0.8485765286866974	2.223876544895687	63.14743083302503	0	0.9399999999999999	0	2.541001381439486	-4.386018937586451	7.710920324589742	8.156550255617814	0.142358657564916	0	0	0	4.542482184461546	-3.124529339547286	0.8978752917107076	11.50911237564556	0.2008719049370414	0	0	0	0	0	0	40.52974775561484	-40.52974775561484	4.907076599220741	83.67931782432272	85.09292367132531	0	0	40.52974775561484	-40.52974775561484	4.907076599220741	83.67931782432272	85.09292367130799	0	0
19.65999999999967	0.5170303357064043	2.163145492119547	66.82583546738812	0	0.9399999999999999	0	1.866473762989141	-4.38473908057431	7.906196111903141	6.462663486389921	0.1127947562859199	0	0	0	4.889498134395453	-2.648090992961016	4.382555230452388	11.34619876590227	0.1980285260507119	0	0	0	0	0	0	40.54475956435809	-40.54475956435809	4.907627494305578	83.68714837306517	85.09237277626433	0	0	40.54475956435809	-40.54475956435809	4.907627494305578	83.68714837306517	85.09237277624709	0	0
